<mxfile host="Electron" modified="2024-03-08T12:33:34.495Z" agent="Mozilla/5.0 (Windows NT 10.0; Win64; x64) AppleWebKit/537.36 (KHTML, like Gecko) draw.io/22.1.11 Chrome/114.0.5735.289 Electron/25.9.8 Safari/537.36" etag="vEY-j2XhFcCAuCHk0C45" version="22.1.11" type="device">
  <diagram name="Страница — 1" id="gOcQu-ggy9y2sPKDK1HZ">
    <mxGraphModel dx="1418" dy="828" grid="1" gridSize="10" guides="1" tooltips="1" connect="1" arrows="1" fold="1" page="1" pageScale="1" pageWidth="827" pageHeight="1169" background="#FFFFFF" math="0" shadow="0">
      <root>
        <mxCell id="0" />
        <mxCell id="1" parent="0" />
        <mxCell id="zpCaUZ-dOMmkf9kOduyj-1" value="&lt;font style=&quot;&quot;&gt;&lt;span style=&quot;font-size: 24px;&quot;&gt;ИТОГОВАЯ КОНТРОЛЬНАЯ РАБОТА ПО ОСНОВНОМУ БЛОКУ&lt;/span&gt;&lt;br&gt;&lt;span style=&quot;font-size: 24px;&quot;&gt;ЯСТРЕБОВ А.Ю.&lt;/span&gt;&lt;br&gt;&lt;span style=&quot;font-size: 24px;&quot;&gt;ПОТОК &quot;РАЗРАБОТЧИК&quot;&lt;/span&gt;&lt;br&gt;&lt;font style=&quot;font-size: 14px;&quot;&gt;(блок-схема разработана для заранее имеющего массива типа string Объясняется логика решения без методов)&lt;/font&gt;&lt;br&gt;&lt;/font&gt;" style="text;html=1;align=center;verticalAlign=middle;resizable=0;points=[];autosize=1;strokeColor=#d6b656;fillColor=#fff2cc;" parent="1" vertex="1">
          <mxGeometry x="24" y="60" width="780" height="120" as="geometry" />
        </mxCell>
        <mxCell id="zpCaUZ-dOMmkf9kOduyj-6" value="" style="edgeStyle=orthogonalEdgeStyle;rounded=0;orthogonalLoop=1;jettySize=auto;html=1;" parent="1" source="zpCaUZ-dOMmkf9kOduyj-2" target="zpCaUZ-dOMmkf9kOduyj-5" edge="1">
          <mxGeometry relative="1" as="geometry" />
        </mxCell>
        <mxCell id="zpCaUZ-dOMmkf9kOduyj-2" value="НАЧАЛО" style="ellipse;whiteSpace=wrap;html=1;fillColor=#d5e8d4;strokeColor=#82b366;" parent="1" vertex="1">
          <mxGeometry x="368" y="220" width="120" height="40" as="geometry" />
        </mxCell>
        <mxCell id="zpCaUZ-dOMmkf9kOduyj-3" value="КОНЕЦ" style="ellipse;whiteSpace=wrap;html=1;fillColor=#d5e8d4;strokeColor=#82b366;" parent="1" vertex="1">
          <mxGeometry x="629" y="680" width="120" height="40" as="geometry" />
        </mxCell>
        <mxCell id="Jbr0WYQSJ8e9tAOoT2vr-2" value="" style="edgeStyle=orthogonalEdgeStyle;rounded=0;orthogonalLoop=1;jettySize=auto;html=1;" edge="1" parent="1" source="zpCaUZ-dOMmkf9kOduyj-5" target="Jbr0WYQSJ8e9tAOoT2vr-1">
          <mxGeometry relative="1" as="geometry" />
        </mxCell>
        <mxCell id="zpCaUZ-dOMmkf9kOduyj-5" value="string array&lt;br&gt;size" style="shape=parallelogram;perimeter=parallelogramPerimeter;whiteSpace=wrap;html=1;fixedSize=1;" parent="1" vertex="1">
          <mxGeometry x="333" y="300" width="190" height="60" as="geometry" />
        </mxCell>
        <mxCell id="zpCaUZ-dOMmkf9kOduyj-11" value="" style="edgeStyle=orthogonalEdgeStyle;rounded=0;orthogonalLoop=1;jettySize=auto;html=1;" parent="1" source="zpCaUZ-dOMmkf9kOduyj-9" target="zpCaUZ-dOMmkf9kOduyj-10" edge="1">
          <mxGeometry relative="1" as="geometry" />
        </mxCell>
        <mxCell id="zpCaUZ-dOMmkf9kOduyj-18" value="" style="edgeStyle=orthogonalEdgeStyle;rounded=0;orthogonalLoop=1;jettySize=auto;html=1;" parent="1" source="zpCaUZ-dOMmkf9kOduyj-9" target="zpCaUZ-dOMmkf9kOduyj-17" edge="1">
          <mxGeometry relative="1" as="geometry" />
        </mxCell>
        <mxCell id="zpCaUZ-dOMmkf9kOduyj-9" value="InitIndex &amp;lt; size" style="rhombus;whiteSpace=wrap;html=1;" parent="1" vertex="1">
          <mxGeometry x="346" y="550" width="164" height="80" as="geometry" />
        </mxCell>
        <mxCell id="zpCaUZ-dOMmkf9kOduyj-12" value="" style="edgeStyle=orthogonalEdgeStyle;rounded=0;orthogonalLoop=1;jettySize=auto;html=1;" parent="1" source="zpCaUZ-dOMmkf9kOduyj-10" target="zpCaUZ-dOMmkf9kOduyj-3" edge="1">
          <mxGeometry relative="1" as="geometry" />
        </mxCell>
        <mxCell id="zpCaUZ-dOMmkf9kOduyj-10" value="result" style="shape=document;whiteSpace=wrap;html=1;boundedLbl=1;" parent="1" vertex="1">
          <mxGeometry x="629" y="550" width="120" height="80" as="geometry" />
        </mxCell>
        <mxCell id="zpCaUZ-dOMmkf9kOduyj-14" value="NO" style="text;html=1;align=center;verticalAlign=middle;resizable=0;points=[];autosize=1;strokeColor=none;fillColor=none;" parent="1" vertex="1">
          <mxGeometry x="535" y="550" width="40" height="30" as="geometry" />
        </mxCell>
        <mxCell id="zpCaUZ-dOMmkf9kOduyj-20" value="" style="edgeStyle=orthogonalEdgeStyle;rounded=0;orthogonalLoop=1;jettySize=auto;html=1;" parent="1" source="zpCaUZ-dOMmkf9kOduyj-15" target="zpCaUZ-dOMmkf9kOduyj-19" edge="1">
          <mxGeometry relative="1" as="geometry" />
        </mxCell>
        <mxCell id="zpCaUZ-dOMmkf9kOduyj-25" value="" style="edgeStyle=orthogonalEdgeStyle;rounded=0;orthogonalLoop=1;jettySize=auto;html=1;" parent="1" source="zpCaUZ-dOMmkf9kOduyj-15" target="zpCaUZ-dOMmkf9kOduyj-23" edge="1">
          <mxGeometry relative="1" as="geometry" />
        </mxCell>
        <mxCell id="zpCaUZ-dOMmkf9kOduyj-15" value="str.Length &amp;lt;= 3 ?" style="rhombus;whiteSpace=wrap;html=1;" parent="1" vertex="1">
          <mxGeometry x="139" y="680" width="150" height="80" as="geometry" />
        </mxCell>
        <mxCell id="zpCaUZ-dOMmkf9kOduyj-22" value="" style="edgeStyle=orthogonalEdgeStyle;rounded=0;orthogonalLoop=1;jettySize=auto;html=1;" parent="1" source="zpCaUZ-dOMmkf9kOduyj-17" target="zpCaUZ-dOMmkf9kOduyj-15" edge="1">
          <mxGeometry relative="1" as="geometry" />
        </mxCell>
        <mxCell id="zpCaUZ-dOMmkf9kOduyj-17" value="str = array [InitIndex]" style="rounded=0;whiteSpace=wrap;html=1;" parent="1" vertex="1">
          <mxGeometry x="154" y="560" width="120" height="60" as="geometry" />
        </mxCell>
        <mxCell id="zpCaUZ-dOMmkf9kOduyj-33" style="edgeStyle=orthogonalEdgeStyle;rounded=0;orthogonalLoop=1;jettySize=auto;html=1;entryX=1;entryY=0.5;entryDx=0;entryDy=0;" parent="1" source="zpCaUZ-dOMmkf9kOduyj-19" target="zpCaUZ-dOMmkf9kOduyj-23" edge="1">
          <mxGeometry relative="1" as="geometry">
            <Array as="points">
              <mxPoint x="381" y="840" />
            </Array>
          </mxGeometry>
        </mxCell>
        <mxCell id="zpCaUZ-dOMmkf9kOduyj-19" value="string result [ResIndex] = str&lt;br&gt;ResIndex++" style="rounded=0;whiteSpace=wrap;html=1;" parent="1" vertex="1">
          <mxGeometry x="321" y="690" width="120" height="60" as="geometry" />
        </mxCell>
        <mxCell id="zpCaUZ-dOMmkf9kOduyj-21" value="YES" style="text;html=1;align=center;verticalAlign=middle;resizable=0;points=[];autosize=1;strokeColor=none;fillColor=none;" parent="1" vertex="1">
          <mxGeometry x="259" y="670" width="50" height="30" as="geometry" />
        </mxCell>
        <mxCell id="Jbr0WYQSJ8e9tAOoT2vr-4" style="edgeStyle=orthogonalEdgeStyle;rounded=0;orthogonalLoop=1;jettySize=auto;html=1;entryX=0.5;entryY=0;entryDx=0;entryDy=0;" edge="1" parent="1" source="zpCaUZ-dOMmkf9kOduyj-23" target="zpCaUZ-dOMmkf9kOduyj-9">
          <mxGeometry relative="1" as="geometry">
            <Array as="points">
              <mxPoint x="100" y="840" />
              <mxPoint x="100" y="530" />
              <mxPoint x="428" y="530" />
            </Array>
          </mxGeometry>
        </mxCell>
        <mxCell id="zpCaUZ-dOMmkf9kOduyj-23" value="InitIndex ++" style="rounded=0;whiteSpace=wrap;html=1;" parent="1" vertex="1">
          <mxGeometry x="154" y="810" width="120" height="60" as="geometry" />
        </mxCell>
        <mxCell id="zpCaUZ-dOMmkf9kOduyj-27" value="NO" style="text;html=1;align=center;verticalAlign=middle;resizable=0;points=[];autosize=1;strokeColor=none;fillColor=none;" parent="1" vertex="1">
          <mxGeometry x="139" y="760" width="40" height="30" as="geometry" />
        </mxCell>
        <mxCell id="zpCaUZ-dOMmkf9kOduyj-29" value="YES" style="text;html=1;align=center;verticalAlign=middle;resizable=0;points=[];autosize=1;strokeColor=none;fillColor=none;" parent="1" vertex="1">
          <mxGeometry x="314" y="548" width="50" height="30" as="geometry" />
        </mxCell>
        <mxCell id="Jbr0WYQSJ8e9tAOoT2vr-3" value="" style="edgeStyle=orthogonalEdgeStyle;rounded=0;orthogonalLoop=1;jettySize=auto;html=1;" edge="1" parent="1" source="Jbr0WYQSJ8e9tAOoT2vr-1" target="zpCaUZ-dOMmkf9kOduyj-9">
          <mxGeometry relative="1" as="geometry" />
        </mxCell>
        <mxCell id="Jbr0WYQSJ8e9tAOoT2vr-1" value="InitIndex = 0&lt;br style=&quot;border-color: var(--border-color);&quot;&gt;ResIndex = 0" style="rounded=0;whiteSpace=wrap;html=1;" vertex="1" parent="1">
          <mxGeometry x="368" y="410" width="120" height="60" as="geometry" />
        </mxCell>
      </root>
    </mxGraphModel>
  </diagram>
</mxfile>
